<svg width="574" height="602" viewBox="0 0 574 602" fill="none" xmlns="http://www.w3.org/2000/svg">
<path d="M497.22 -33.9222L259.434 120.058L149.125 59.3142L259.1 120.715L289.125 601.314L259.836 120.676L497.22 -33.9222Z" fill="#DBECFF"/>
<path d="M260.272 132.486L261.041 145.854L261.246 132.52L261.177 145.871L262.218 132.725L261.313 145.911L263.178 133.097L261.446 145.975L264.114 133.632L261.575 146.061L265.018 134.326L261.698 146.169L265.878 135.169L261.815 146.297L266.686 136.154L261.924 146.444L267.433 137.268L262.024 146.608L268.11 138.501L262.114 146.788L268.71 139.838L262.192 146.982L269.226 141.264L262.258 147.187L269.654 142.765L262.311 147.402L269.987 144.324L262.351 147.623L270.223 145.923L262.377 147.849L270.359 147.545L262.389 148.077L270.394 149.172L262.387 148.304L270.326 150.787L262.37 148.528L270.157 152.372L262.34 148.747L269.889 153.91L262.295 148.958L269.524 155.382L262.238 149.159L269.067 156.775L262.168 149.348L268.523 158.071L262.086 149.522L267.897 159.258L261.993 149.679L267.196 160.321L261.89 149.819L266.429 161.25L261.778 149.939L265.603 162.034L261.659 150.038L264.727 162.665L261.533 150.115L263.812 163.135L261.403 150.17L262.866 163.44L261.269 150.201L261.902 163.576L261.133 150.208L260.928 163.541L260.997 150.191L259.956 163.337L260.861 150.151L258.997 162.965L260.728 150.087L258.06 162.429L260.599 150.001L257.156 161.736L260.476 149.893L256.296 160.892L260.359 149.765L255.488 159.908L260.25 149.618L254.741 158.793L260.15 149.453L254.064 157.561L260.06 149.273L253.464 156.224L259.982 149.079L252.948 154.797L259.916 148.874L252.52 153.297L259.863 148.66L252.187 151.738L259.823 148.438L251.951 150.139L259.797 148.213L251.815 148.517L259.785 147.985L251.78 146.889L259.787 147.758L251.848 145.274L259.804 147.533L252.017 143.689L259.834 147.314L252.285 142.152L259.879 147.103L252.65 140.679L259.936 146.903L253.107 139.287L260.006 146.714L253.651 137.99L260.088 146.54L254.277 136.804L260.181 146.382L254.978 135.74L260.284 146.243L255.745 134.812L260.396 146.123L256.571 134.028L260.515 146.023L257.447 133.397L260.641 145.946L258.362 132.927L260.771 145.892L259.308 132.622L260.905 145.861L260.272 132.486Z" fill="#D9D9D9"/>
</svg>
