<svg width="240" height="240" viewBox="0 0 240 240" fill="none" xmlns="http://www.w3.org/2000/svg">
<path d="M120 0L126.591 36.2589L138.772 1.4774L139.609 38.3209L157.082 5.87321L152.145 42.3941L174.479 13.0792L163.89 48.3782L190.534 22.918L174.554 56.1259L204.853 35.1472L183.874 65.4464L217.082 49.4658L191.622 76.1101L226.921 65.5211L197.606 87.8546L234.127 82.918L201.679 100.391L238.523 101.228L203.741 113.409L240 120L203.741 126.591L238.523 138.772L201.679 139.609L234.127 157.082L197.606 152.145L226.921 174.479L191.622 163.89L217.082 190.534L183.874 174.554L204.853 204.853L174.554 183.874L190.534 217.082L163.89 191.622L174.479 226.921L152.145 197.606L157.082 234.127L139.609 201.679L138.772 238.523L126.591 203.741L120 240L113.409 203.741L101.228 238.523L100.391 201.679L82.918 234.127L87.8546 197.606L65.5211 226.921L76.1101 191.622L49.4658 217.082L65.4464 183.874L35.1472 204.853L56.1259 174.554L22.918 190.534L48.3782 163.89L13.0792 174.479L42.3941 152.145L5.87321 157.082L38.3209 139.609L1.4774 138.772L36.2589 126.591L0 120L36.2589 113.409L1.4774 101.228L38.3209 100.391L5.87321 82.918L42.3941 87.8546L13.0792 65.5211L48.3782 76.1101L22.918 49.4658L56.1259 65.4464L35.1472 35.1472L65.4464 56.1259L49.4658 22.918L76.1101 48.3782L65.5211 13.0792L87.8546 42.3941L82.918 5.87321L100.391 38.3209L101.228 1.4774L113.409 36.2589L120 0Z" fill="white"/>
</svg>
