<svg width="50" height="50" viewBox="0 0 50 50" fill="none" xmlns="http://www.w3.org/2000/svg">
<path d="M3 35.2441C3 35.2441 4.69265 33.1628 6.50982 30.0936C8.32698 27.0244 10.8732 22.1096 13.9364 20.454C16.2254 19.2169 20.3965 19.7323 20.3965 19.7323C19.4011 21.4135 16.3244 25.9069 13.745 29.6273C11.2945 33.1618 7.28365 35.2441 3 35.2441Z" fill="white"/>
<path d="M19.2894 35.2441C19.2894 35.2441 20.9821 33.1628 22.7992 30.0936C24.6164 27.0244 26.7502 22.522 29.8134 20.8664C32.1024 19.6292 36.2735 20.1447 36.2735 20.1447C35.1477 22.0463 32.103 27.1716 29.9493 30.7962C28.5154 33.2093 25.9341 34.6815 23.1406 34.6815C23.0819 34.6815 23.0234 34.6858 22.9654 34.6945L19.2894 35.2441Z" fill="#2489FF"/>
<path d="M42.074 12.4621C42.074 12.4621 40.1561 14.9629 31.7758 13.0355C29.4887 12.5095 27.3952 12.2279 25.5599 12.0965C20.448 11.7304 16.0374 14.8414 13.2067 19.1137C17.6105 16.2056 23.9901 18.4582 31.3457 18.6233C35.7345 18.7218 39.5353 16.0435 42.074 12.4621Z" fill="white"/>
<path d="M47.4351 28.6441C47.4351 28.6441 44.7003 30.9123 37.4427 29.2111C35.3621 28.7235 33.3451 28.4688 31.5262 28.3536C26.5327 28.0375 22.1525 31.0267 19.4252 35.2216C25.3658 35.2216 29.9851 35.2216 35.3133 35.2216C40.2065 35.2216 44.7679 32.7466 47.4351 28.6441Z" fill="#2489FF"/>
</svg>
