<svg width="300" height="300" viewBox="0 0 300 300" fill="none" xmlns="http://www.w3.org/2000/svg">
<path d="M23 205.481C23 205.481 32.6474 193.619 43.0044 176.126C53.3614 158.632 67.8735 130.62 85.3325 121.184C98.3788 114.133 122.152 117.071 122.152 117.071C116.479 126.652 98.9429 152.263 84.2415 173.468C70.2747 193.613 47.4149 205.481 23 205.481Z" fill="white"/>
<path d="M115.842 205.481C115.842 205.481 125.49 193.619 135.847 176.126C146.204 158.632 158.365 132.971 175.824 123.534C188.871 116.483 212.644 119.421 212.644 119.421C206.227 130.259 188.874 159.471 176.599 180.13C168.426 193.883 153.714 202.274 137.792 202.274C137.458 202.274 137.124 202.299 136.794 202.348L115.842 205.481Z" fill="#2489FF"/>
<path d="M245.704 75.6337C245.704 75.6337 234.773 89.8873 187.009 78.902C173.974 75.904 162.042 74.2989 151.581 73.5498C122.446 71.4632 97.3072 89.1946 81.1734 113.545C106.273 96.9702 142.634 109.809 184.558 110.75C209.572 111.311 231.235 96.0464 245.704 75.6337Z" fill="white"/>
<path d="M276.26 167.864C276.26 167.864 260.673 180.791 219.308 171.095C207.449 168.316 195.953 166.864 185.586 166.208C157.126 164.406 132.16 181.443 116.616 205.352C150.475 205.352 176.803 205.352 207.171 205.352C235.06 205.352 261.058 191.246 276.26 167.864Z" fill="#2489FF"/>
</svg>
