<svg width="434" height="262" viewBox="0 0 434 262" fill="none" xmlns="http://www.w3.org/2000/svg">
<path d="M0 225.457C0 225.457 16.418 205.27 34.0437 175.5C51.6693 145.73 76.3662 98.0587 106.078 82C128.28 70 168.738 75 168.738 75C159.084 91.3063 129.24 134.89 104.221 170.977C80.4526 205.26 41.5495 225.457 0 225.457Z" fill="white"/>
<path d="M157.884 225.457C157.884 225.457 174.302 205.27 191.927 175.5C209.553 145.73 234.25 101.059 263.962 85C286.164 73 319.221 79 319.221 79C308.976 95.1046 284.486 134.824 263.318 169.276C240.84 205.858 200.59 227.337 157.884 225.457Z" fill="#2489FF"/>
<path d="M373 4.62431C373 4.62431 354.774 28.8278 275.137 10.174C253.8 5.17608 234.235 2.45796 217.025 1.15677C167.859 -2.5605 125.565 27.6698 98.6772 69C140.37 40.9603 200.698 62.493 270.266 64.2344C312.463 65.2907 348.887 39.2697 373 4.62431Z" fill="white"/>
<path d="M433.989 162.368C370.428 177.061 293.967 174.083 247.221 168.732C222.631 165.918 194.216 175.799 179.64 195.802L158 225.5L309.353 225.939C358.718 226.082 405.123 202.414 433.989 162.368V162.368Z" fill="#2489FF"/>
</svg>
