<svg width="100" height="100" viewBox="0 0 100 100" fill="none" xmlns="http://www.w3.org/2000/svg">
<path d="M8 68.9054C8 68.9054 11.1972 64.9742 14.6297 59.1768C18.0621 53.3794 22.8715 44.0959 28.6576 40.9687C32.9813 38.6318 40.86 39.6055 40.86 39.6055C38.9799 42.781 33.1682 51.2684 28.296 58.296C23.6673 64.9723 16.0913 68.9054 8 68.9054Z" fill="white"/>
<path d="M38.7689 68.9054C38.7689 68.9054 41.9662 64.9742 45.3986 59.1768C48.831 53.3794 52.8615 44.8749 58.6476 41.7476C62.9713 39.4107 70.85 40.3844 70.85 40.3844C68.7234 43.9763 62.9723 53.6575 58.9042 60.5038C56.1957 65.062 51.32 67.8427 46.0434 67.8427C45.9326 67.8427 45.8219 67.851 45.7124 67.8673L38.7689 68.9054Z" fill="white"/>
<path d="M81.8065 25.8728C81.8065 25.8728 78.1838 30.5966 62.3543 26.956C58.0343 25.9624 54.0799 25.4305 50.6133 25.1822C40.9574 24.4907 32.6263 30.367 27.2794 38.4371C35.5978 32.944 47.6481 37.1988 61.5419 37.5106C69.832 37.6967 77.0113 32.6378 81.8065 25.8728Z" fill="white"/>
<path d="M91.9329 56.4388C91.9329 56.4388 86.7672 60.7231 73.0585 57.5099C69.1284 56.5887 65.3184 56.1076 61.8827 55.8901C52.4506 55.2929 44.1769 60.9393 39.0254 68.863C50.2465 68.863 58.9717 68.863 69.0362 68.863C78.279 68.863 86.8949 64.1879 91.9329 56.4388Z" fill="white"/>
</svg>
