<svg width="500" height="500" viewBox="0 0 500 500" fill="none" xmlns="http://www.w3.org/2000/svg">
<path d="M34 348.457C34 348.457 50.418 328.27 68.0437 298.5C85.6693 268.73 110.366 221.059 140.078 205C162.28 193 202.738 198 202.738 198C193.084 214.306 163.24 257.89 138.221 293.977C114.453 328.26 75.5495 348.457 34 348.457Z" fill="white"/>
<path d="M192 348.457C192 348.457 208.418 328.27 226.044 298.5C243.669 268.73 264.366 225.059 294.078 209C316.28 197 356.738 202 356.738 202C345.818 220.444 316.286 270.158 295.396 305.314C281.488 328.721 256.451 343 229.355 343C228.786 343 228.218 343.042 227.655 343.126L192 348.457Z" fill="#2489FF"/>
<path d="M413 127.482C413 127.482 394.397 151.739 313.112 133.044C290.928 127.942 270.622 125.211 252.821 123.936C203.237 120.385 160.457 150.56 133 192C175.715 163.793 237.595 185.642 308.94 187.243C351.51 188.198 388.376 162.221 413 127.482Z" fill="white"/>
<path d="M465 284.44C465 284.44 438.474 306.44 368.079 289.94C347.898 285.209 328.333 282.739 310.691 281.622C262.256 278.555 219.77 307.55 193.317 348.239C250.938 348.239 295.743 348.239 347.424 348.239C394.887 348.239 439.13 324.232 465 284.44Z" fill="#2489FF"/>
</svg>
